<svg xmlns="http://www.w3.org/2000/svg" width="40" height="40" viewBox="0 0 40 40" fill="none">
  <defs>
    <linearGradient id="mr-bg" x1="4" y1="2" x2="36" y2="38" gradientUnits="userSpaceOnUse">
      <stop stop-color="#0d9488"/>
      <stop offset="1" stop-color="#0369a1"/>
    </linearGradient>
    <linearGradient id="mr-pin" x1="14" y1="8" x2="28" y2="30" gradientUnits="userSpaceOnUse">
      <stop stop-color="#ffffff"/>
      <stop offset="1" stop-color="#ccfbf1"/>
    </linearGradient>
  </defs>
  <rect width="40" height="40" rx="11" fill="url(#mr-bg)"/>
  <path d="M8 28c0-6.5 5.5-12 12-12s12 5.5 12 12" stroke="#fff" stroke-opacity=".25" stroke-width="1.5" stroke-linecap="round"/>
  <circle cx="12" cy="26" r="2.5" fill="#fff" fill-opacity=".9"/>
  <circle cx="20" cy="22" r="2.5" fill="#fff" fill-opacity=".75"/>
  <circle cx="28" cy="26" r="2.5" fill="#fff" fill-opacity=".9"/>
  <path d="M12 26h8l8-4" stroke="#fff" stroke-width="1.5" stroke-linecap="round" stroke-linejoin="round"/>
  <path d="M20 10c-3.3 0-6 2.7-6 6 0 4.5 6 10 6 10s6-5.5 6-10c0-3.3-2.7-6-6-6Z" fill="url(#mr-pin)"/>
  <circle cx="20" cy="16" r="2.2" fill="#0d9488"/>
</svg>
