<svg xmlns="http://www.w3.org/2000/svg" width="40" height="40" viewBox="0 0 40 40" fill="none" role="img" aria-label="MeuRoteiro">
  <defs>
    <linearGradient id="logo-bg" x1="8" y1="4" x2="34" y2="38" gradientUnits="userSpaceOnUse">
      <stop stop-color="#0284C7"/>
      <stop offset="0.55" stop-color="#0D9488"/>
      <stop offset="1" stop-color="#14B8A6"/>
    </linearGradient>
  </defs>
  <rect width="40" height="40" rx="11" fill="url(#logo-bg)"/>
  <rect x="1" y="1" width="38" height="38" rx="10" stroke="#FFF" stroke-opacity="0.2" stroke-width="1"/>
  <path d="M20 9.5V12M20 28V30.5M9.5 20H12M28 20H30.5" stroke="#FFF" stroke-opacity="0.18" stroke-width="1" stroke-linecap="round"/>
  <path d="M9 28.5C13.5 23.5 16.5 24.5 20 21.5C23.5 18.5 27 19 31.5 13.5" stroke="#FFF" stroke-width="2.25" stroke-linecap="round" fill="none"/>
  <circle cx="9" cy="28.5" r="2.4" fill="#F59E0B"/>
  <circle cx="31.5" cy="13.5" r="2" fill="#FFF" fill-opacity="0.95"/>
  <path d="M20 13.5c-2.2 0-4 1.8-4 4 0 2.95 4 7.5 4 7.5s4-4.55 4-7.5c0-2.2-1.8-4-4-4Z" fill="#FFF"/>
  <circle cx="20" cy="17.5" r="1.75" fill="#14B8A6"/>
  <circle cx="20" cy="17.5" r="0.7" fill="#0F766E"/>
</svg>
