<svg xmlns="http://www.w3.org/2000/svg" width="40" height="40" viewBox="0 0 40 40" fill="none" role="img" aria-label="MeuRoteiro">
  <defs>
    <linearGradient id="logo-sky" x1="6" y1="4" x2="36" y2="38" gradientUnits="userSpaceOnUse">
      <stop stop-color="#0284C7"/>
      <stop offset="0.55" stop-color="#0D9488"/>
      <stop offset="1" stop-color="#0F766E"/>
    </linearGradient>
  </defs>
  <rect width="40" height="40" rx="11" fill="url(#logo-sky)"/>
  <circle cx="31.5" cy="9" r="4.2" fill="#FBBF24" fill-opacity=".95"/>
  <circle cx="31.5" cy="9" r="6.5" fill="#F97316" fill-opacity=".18"/>
  <path d="M0 29.5C7 24.5 13 27.5 20 25.5C27 23.5 33 27 40 29.5V40H0V29.5Z" fill="#065F46" fill-opacity=".22"/>
  <path d="M8.5 12.5H31.5L29.5 27.5H10.5L8.5 12.5Z" fill="#fff" fill-opacity=".14" stroke="#fff" stroke-opacity=".35" stroke-width="1.1" stroke-linejoin="round"/>
  <path d="M12.5 12.5V27.5M20 12.5V27.5M27.5 12.5V27.5" stroke="#fff" stroke-opacity=".12" stroke-width=".8"/>
  <path d="M11 27.5C14.5 23.5 17.5 24.5 20 22.5C22.5 20.5 26 21.5 29.5 18.5" stroke="#fff" stroke-width="1.45" stroke-linecap="round" fill="none" opacity=".9"/>
  <circle cx="11" cy="27.5" r="1.7" fill="#F97316"/>
  <circle cx="20" cy="22.5" r="1.5" fill="#fff" fill-opacity=".95"/>
  <circle cx="29.5" cy="18.5" r="1.5" fill="#fff" fill-opacity=".95"/>
  <path d="M20 11.5c-2.35 0-4.25 1.9-4.25 4.25 0 3.15 4.25 7.75 4.25 7.75s4.25-4.6 4.25-7.75c0-2.35-1.9-4.25-4.25-4.25Z" fill="#fff"/>
  <circle cx="20" cy="15.75" r="1.55" fill="#0D9488"/>
</svg>
