<svg xmlns="http://www.w3.org/2000/svg" width="44" height="44" viewBox="0 0 44 44" fill="none" role="img" aria-label="MeuRoteiro">
  <defs>
    <linearGradient id="logo-bg" x1="6" y1="2" x2="40" y2="42" gradientUnits="userSpaceOnUse">
      <stop stop-color="#0EA5E9"/>
      <stop offset="0.48" stop-color="#14B8A6"/>
      <stop offset="1" stop-color="#0F766E"/>
    </linearGradient>
    <linearGradient id="logo-route" x1="8" y1="32" x2="36" y2="12" gradientUnits="userSpaceOnUse">
      <stop stop-color="#F59E0B"/>
      <stop offset="1" stop-color="#FFFFFF"/>
    </linearGradient>
  </defs>
  <rect width="44" height="44" rx="13" fill="url(#logo-bg)"/>
  <rect x="1.5" y="1.5" width="41" height="41" rx="11.5" stroke="#fff" stroke-opacity=".28" stroke-width="1"/>
  <circle cx="35.5" cy="10.5" r="4.8" fill="#FBBF24"/>
  <circle cx="35.5" cy="10.5" r="7.5" fill="#F59E0B" fill-opacity=".22"/>
  <path d="M0 32.5C8 26.5 14 29.5 22 27C30 24.5 36 28.5 44 32.5V44H0V32.5Z" fill="#064E3B" fill-opacity=".28"/>
  <path d="M7 15.5H37L34.5 31H9.5L7 15.5Z" fill="#fff" fill-opacity=".12" stroke="#fff" stroke-opacity=".22" stroke-width="1.15" stroke-linejoin="round"/>
  <path d="M9.5 31.5C14.5 25.5 18 26.5 22 24.5C26 22.5 30.5 23.5 35.5 17.5" stroke="url(#logo-route)" stroke-width="2.35" stroke-linecap="round" fill="none"/>
  <circle cx="9.5" cy="31.5" r="2.1" fill="#F59E0B" stroke="#fff" stroke-width=".8"/>
  <circle cx="35.5" cy="17.5" r="1.9" fill="#fff" fill-opacity=".95"/>
  <path d="M22 12.5c-2.65 0-4.8 2.15-4.8 4.8 0 3.55 4.8 9 4.8 9s4.8-5.45 4.8-9c0-2.65-2.15-4.8-4.8-4.8Z" fill="#fff"/>
  <circle cx="22" cy="17.3" r="2.15" fill="#14B8A6"/>
  <circle cx="22" cy="17.3" r=".85" fill="#0F766E"/>
</svg>
